<svg id="Capa_1" enable-background="new 0 0 512 512" height="512" viewBox="0 0 512 512" width="512" xmlns="http://www.w3.org/2000/svg"><g><path d="m148.005 360.446c-3.551 1.107-5.97 4.396-5.97 8.115v62.709c0 4.694 3.806 8.5 8.5 8.5s8.5-3.806 8.5-8.5v-35.442l26.908 38.965c2.473 3.571 6.609 5.09 10.532 3.861 4-1.249 6.585-4.979 6.585-9.583l-.587-60.709c-.045-4.667-3.841-8.418-8.498-8.418-.027 0-.056 0-.083 0-4.694.046-8.463 3.888-8.417 8.582l.35 36.177-28.294-40.972c-2.115-3.061-5.972-4.389-9.526-3.285z"/><path d="m215.816 368.444v62.826c0 4.694 3.806 8.5 8.5 8.5s8.5-3.806 8.5-8.5v-62.826c0-4.694-3.806-8.5-8.5-8.5s-8.5 3.806-8.5 8.5z"/><path d="m369.965 430.983c0-4.694-3.806-8.5-8.5-8.5h-17.731v-14.126h15.797c4.694 0 8.5-3.806 8.5-8.5s-3.806-8.5-8.5-8.5h-15.797v-14.126h17.731c4.694 0 8.5-3.806 8.5-8.5s-3.806-8.5-8.5-8.5h-26.231c-4.694 0-8.5 3.806-8.5 8.5v62.252c0 4.694 3.806 8.5 8.5 8.5h26.231c4.694 0 8.5-3.805 8.5-8.5z"/><path d="m285.824 376.944c4.593 0 9.021 1.352 12.805 3.908 3.89 2.627 9.173 1.604 11.802-2.284 2.628-3.89 1.605-9.174-2.284-11.802-6.605-4.463-14.324-6.822-22.322-6.822-22.008 0-39.913 17.905-39.913 39.913s17.905 39.913 39.913 39.913c9.96-.221 19.398-3.686 26.304-11.908 3.016-3.598 2.544-8.959-1.054-11.975-3.597-3.015-8.959-2.544-11.974 1.055-2.626 3.091-6.939 5.679-13.276 5.828-12.634 0-22.913-10.278-22.913-22.913s10.278-22.913 22.912-22.913z"/><path d="m421.036 60.291c-3.589-3.028-8.951-2.575-11.978 1.013-3.028 3.587-2.575 8.95 1.012 11.978 53.974 45.559 84.93 112.157 84.93 182.718 0 88.532-48.584 169.413-126.792 211.078-4.143 2.207-5.712 7.355-3.505 11.499 2.065 3.02 6.183 6.088 11.499 3.505 83.763-44.625 135.798-131.255 135.798-226.082 0-75.579-33.155-146.912-90.964-195.709z"/><path d="m337.441 480.768c-26.057 9.444-53.458 14.232-81.441 14.232-131.785 0-239-107.215-239-239s107.215-239 239-239c45.021 0 88.876 12.582 126.822 36.385 3.978 2.494 9.223 1.294 11.718-2.684 2.495-3.977 1.293-9.223-2.684-11.717-40.657-25.504-87.635-38.984-135.856-38.984-68.38 0-132.667 26.629-181.02 74.98-48.351 48.353-74.98 112.64-74.98 181.02s26.629 132.667 74.98 181.02c48.353 48.351 112.64 74.98 181.02 74.98 29.965 0 59.314-5.131 87.234-15.25 4.414-1.6 6.694-6.474 5.095-10.888-1.6-4.413-6.474-6.696-10.888-5.094z"/><path d="m400.447 225.061v-11.663c0-10.096-6.527-18.691-15.581-21.802 1.254-2.838 1.956-5.972 1.956-9.269v-11.727c0-12.693-10.327-23.02-23.02-23.02-8.363-.001-58.093.002-64.643 0-8.423 0-15.973-3.504-21.257-9.865-11.959-12.347-2.789-36.671-.875-50.569 3.724-19.958-6.358-40.142-24.517-49.081-8.835-4.625-22.932-.322-26.489 11.061l-24.145 71.751c-5.683 16.889-15.818 31.882-27.632 41.435-3.151-8.587-11.409-14.73-21.075-14.73h-19.176c-12.374 0-22.44 10.066-22.44 22.439v136.52c0 12.373 10.066 22.439 22.44 22.439h19.176c8.647 0 16.161-4.919 19.907-12.103 8.711 6.736 23.414 12.103 48.159 12.103h134.83c10.996 0 19.941-8.945 19.941-19.941v-13.218c0-2.69-.542-5.254-1.512-7.598 7.322-3.866 12.326-11.555 12.326-20.395v-11.664c0-3.307-.705-6.451-1.965-9.297 9.06-3.109 15.592-11.706 15.592-21.806zm-28.626-54.461v11.727c0 4.422-3.598 8.02-8.02 8.02h-53.07c-7.631 0-13.84-6.209-13.84-13.926 0-7.631 6.208-13.84 13.84-13.84h53.07c4.423-.001 8.02 3.597 8.02 8.019zm-196.212 122.141v-55.74c0-4.143-3.358-7.5-7.5-7.5s-7.5 3.357-7.5 7.5v69.538c0 4.103-3.337 7.439-7.439 7.439h-19.176c-4.103 0-7.44-3.337-7.44-7.439v-136.519c0-4.103 3.337-7.439 7.44-7.439h19.176c4.102 0 7.439 3.337 7.439 7.439v31.889c0 4.143 3.358 7.5 7.5 7.5s7.5-3.357 7.5-7.5v-22.226c20.581-12.52 34.323-35.715 40.484-54.023l24.145-71.751c.892-1.459 1.421-3.355 5.647-2.387 12.149 5.981 18.892 19.499 16.397 32.873-3.806 19.518-11.571 46.182 4.081 62.905 5.334 6.421 12.373 11.017 20.221 13.404-2.962 4.542-4.691 9.967-4.691 15.802 0 8.389 3.603 15.951 9.34 21.226-5.899 5.292-9.619 12.968-9.619 21.498 0 8.536 3.725 16.217 9.633 21.509-5.745 5.283-9.353 12.855-9.353 21.257 0 8.121 3.374 15.466 8.789 20.718-5.392 4.863-8.789 11.899-8.789 19.715 0 4.137.952 8.056 2.648 11.55h-63.304c-28.146 0-45.629-8.138-45.629-21.238zm188.161-44.629c4.439 0 8.051 3.611 8.051 8.051v11.664c0 4.439-3.612 8.051-8.051 8.051h-52.996c-7.655 0-13.883-6.228-13.883-13.883s6.228-13.883 13.883-13.883zm-2.763 60.925c0 2.725-2.217 4.941-4.941 4.941h-47.624c-6.369 0-11.55-5.182-11.55-11.55 0-6.369 5.182-11.551 11.55-11.551 1.919-.01 45.238.007 47.624 0 2.725 0 4.941 2.217 4.941 4.941zm24.44-83.976c0 4.439-3.612 8.052-8.051 8.052h-66.9c-7.655 0-13.883-6.228-13.883-13.883s6.228-13.884 13.883-13.884c10.268.004 58.074-.008 66.9 0 4.439 0 8.051 3.612 8.051 8.052z"/></g></svg>